<?xml version="1.0" encoding="UTF-8"?>
<!DOCTYPE svg PUBLIC "-//W3C//DTD SVG 1.1//EN" "http://www.w3.org/Graphics/SVG/1.1/DTD/svg11.dtd">
<svg xmlns="http://www.w3.org/2000/svg" version="1.1" width="1760px" height="1760px" style="shape-rendering:geometricPrecision; text-rendering:geometricPrecision; image-rendering:optimizeQuality; fill-rule:evenodd; clip-rule:evenodd" xmlns:xlink="http://www.w3.org/1999/xlink">
<g><path style="opacity:1" fill="#fec0bf" d="M -0.5,-0.5 C 26.1667,-0.5 52.8333,-0.5 79.5,-0.5C 79.5,26.1667 79.5,52.8333 79.5,79.5C 52.8333,79.5 26.1667,79.5 -0.5,79.5C -0.5,52.8333 -0.5,26.1667 -0.5,-0.5 Z"/></g>
<g><path style="opacity:1" fill="#000000" d="M 79.5,-0.5 C 639.5,-0.5 1199.5,-0.5 1759.5,-0.5C 1759.5,346.167 1759.5,692.833 1759.5,1039.5C 1732.83,1039.5 1706.17,1039.5 1679.5,1039.5C 1652.83,1039.5 1626.17,1039.5 1599.5,1039.5C 1572.83,1039.5 1546.17,1039.5 1519.5,1039.5C 1492.83,1039.5 1466.17,1039.5 1439.5,1039.5C 1412.83,1039.5 1386.17,1039.5 1359.5,1039.5C 1359.5,1066.17 1359.5,1092.83 1359.5,1119.5C 1386.17,1119.5 1412.83,1119.5 1439.5,1119.5C 1466.17,1119.5 1492.83,1119.5 1519.5,1119.5C 1546.17,1119.5 1572.83,1119.5 1599.5,1119.5C 1626.17,1119.5 1652.83,1119.5 1679.5,1119.5C 1706.17,1119.5 1732.83,1119.5 1759.5,1119.5C 1759.5,1332.83 1759.5,1546.17 1759.5,1759.5C 1226.17,1759.5 692.833,1759.5 159.5,1759.5C 159.5,1732.83 159.5,1706.17 159.5,1679.5C 186.167,1679.5 212.833,1679.5 239.5,1679.5C 266.167,1679.5 292.833,1679.5 319.5,1679.5C 346.167,1679.5 372.833,1679.5 399.5,1679.5C 399.5,1652.83 399.5,1626.17 399.5,1599.5C 372.833,1599.5 346.167,1599.5 319.5,1599.5C 292.833,1599.5 266.167,1599.5 239.5,1599.5C 212.833,1599.5 186.167,1599.5 159.5,1599.5C 132.833,1599.5 106.167,1599.5 79.5,1599.5C 79.5,1572.83 79.5,1546.17 79.5,1519.5C 106.167,1519.5 132.833,1519.5 159.5,1519.5C 186.167,1519.5 212.833,1519.5 239.5,1519.5C 266.167,1519.5 292.833,1519.5 319.5,1519.5C 319.5,1492.83 319.5,1466.17 319.5,1439.5C 346.167,1439.5 372.833,1439.5 399.5,1439.5C 426.167,1439.5 452.833,1439.5 479.5,1439.5C 506.167,1439.5 532.833,1439.5 559.5,1439.5C 586.167,1439.5 612.833,1439.5 639.5,1439.5C 666.167,1439.5 692.833,1439.5 719.5,1439.5C 719.5,1412.83 719.5,1386.17 719.5,1359.5C 692.833,1359.5 666.167,1359.5 639.5,1359.5C 612.833,1359.5 586.167,1359.5 559.5,1359.5C 532.833,1359.5 506.167,1359.5 479.5,1359.5C 452.833,1359.5 426.167,1359.5 399.5,1359.5C 372.833,1359.5 346.167,1359.5 319.5,1359.5C 292.833,1359.5 266.167,1359.5 239.5,1359.5C 212.833,1359.5 186.167,1359.5 159.5,1359.5C 132.833,1359.5 106.167,1359.5 79.5,1359.5C 79.5,1332.83 79.5,1306.17 79.5,1279.5C 132.833,1279.5 186.167,1279.5 239.5,1279.5C 266.167,1279.5 292.833,1279.5 319.5,1279.5C 346.167,1279.5 372.833,1279.5 399.5,1279.5C 426.167,1279.5 452.833,1279.5 479.5,1279.5C 506.167,1279.5 532.833,1279.5 559.5,1279.5C 559.5,1252.83 559.5,1226.17 559.5,1199.5C 532.833,1199.5 506.167,1199.5 479.5,1199.5C 452.833,1199.5 426.167,1199.5 399.5,1199.5C 372.833,1199.5 346.167,1199.5 319.5,1199.5C 292.833,1199.5 266.167,1199.5 239.5,1199.5C 186.167,1199.5 132.833,1199.5 79.5,1199.5C 52.8333,1199.5 26.1667,1199.5 -0.5,1199.5C -0.5,1172.83 -0.5,1146.17 -0.5,1119.5C 26.1667,1119.5 52.8333,1119.5 79.5,1119.5C 106.167,1119.5 132.833,1119.5 159.5,1119.5C 186.167,1119.5 212.833,1119.5 239.5,1119.5C 266.167,1119.5 292.833,1119.5 319.5,1119.5C 346.167,1119.5 372.833,1119.5 399.5,1119.5C 426.167,1119.5 452.833,1119.5 479.5,1119.5C 506.167,1119.5 532.833,1119.5 559.5,1119.5C 559.5,1092.83 559.5,1066.17 559.5,1039.5C 586.167,1039.5 612.833,1039.5 639.5,1039.5C 639.5,1066.17 639.5,1092.83 639.5,1119.5C 666.167,1119.5 692.833,1119.5 719.5,1119.5C 746.167,1119.5 772.833,1119.5 799.5,1119.5C 826.167,1119.5 852.833,1119.5 879.5,1119.5C 906.167,1119.5 932.833,1119.5 959.5,1119.5C 986.167,1119.5 1012.83,1119.5 1039.5,1119.5C 1066.17,1119.5 1092.83,1119.5 1119.5,1119.5C 1146.17,1119.5 1172.83,1119.5 1199.5,1119.5C 1226.17,1119.5 1252.83,1119.5 1279.5,1119.5C 1279.5,1092.83 1279.5,1066.17 1279.5,1039.5C 1252.83,1039.5 1226.17,1039.5 1199.5,1039.5C 1172.83,1039.5 1146.17,1039.5 1119.5,1039.5C 1092.83,1039.5 1066.17,1039.5 1039.5,1039.5C 1039.5,1012.83 1039.5,986.167 1039.5,959.5C 1012.83,959.5 986.167,959.5 959.5,959.5C 932.833,959.5 906.167,959.5 879.5,959.5C 852.833,959.5 826.167,959.5 799.5,959.5C 799.5,986.167 799.5,1012.83 799.5,1039.5C 772.833,1039.5 746.167,1039.5 719.5,1039.5C 719.5,1012.83 719.5,986.167 719.5,959.5C 692.833,959.5 666.167,959.5 639.5,959.5C 612.833,959.5 586.167,959.5 559.5,959.5C 532.833,959.5 506.167,959.5 479.5,959.5C 452.833,959.5 426.167,959.5 399.5,959.5C 372.833,959.5 346.167,959.5 319.5,959.5C 292.833,959.5 266.167,959.5 239.5,959.5C 212.833,959.5 186.167,959.5 159.5,959.5C 132.833,959.5 106.167,959.5 79.5,959.5C 79.5,932.833 79.5,906.167 79.5,879.5C 79.5,852.833 79.5,826.167 79.5,799.5C 79.5,772.833 79.5,746.167 79.5,719.5C 79.5,692.833 79.5,666.167 79.5,639.5C 106.167,639.5 132.833,639.5 159.5,639.5C 186.167,639.5 212.833,639.5 239.5,639.5C 266.167,639.5 292.833,639.5 319.5,639.5C 346.167,639.5 372.833,639.5 399.5,639.5C 426.167,639.5 452.833,639.5 479.5,639.5C 506.167,639.5 532.833,639.5 559.5,639.5C 559.5,612.833 559.5,586.167 559.5,559.5C 586.167,559.5 612.833,559.5 639.5,559.5C 666.167,559.5 692.833,559.5 719.5,559.5C 746.167,559.5 772.833,559.5 799.5,559.5C 826.167,559.5 852.833,559.5 879.5,559.5C 906.167,559.5 932.833,559.5 959.5,559.5C 959.5,532.833 959.5,506.167 959.5,479.5C 932.833,479.5 906.167,479.5 879.5,479.5C 852.833,479.5 826.167,479.5 799.5,479.5C 772.833,479.5 746.167,479.5 719.5,479.5C 692.833,479.5 666.167,479.5 639.5,479.5C 586.167,479.5 532.833,479.5 479.5,479.5C 452.833,479.5 426.167,479.5 399.5,479.5C 399.5,506.167 399.5,532.833 399.5,559.5C 372.833,559.5 346.167,559.5 319.5,559.5C 319.5,532.833 319.5,506.167 319.5,479.5C 292.833,479.5 266.167,479.5 239.5,479.5C 212.833,479.5 186.167,479.5 159.5,479.5C 132.833,479.5 106.167,479.5 79.5,479.5C 79.5,452.833 79.5,426.167 79.5,399.5C 106.167,399.5 132.833,399.5 159.5,399.5C 186.167,399.5 212.833,399.5 239.5,399.5C 266.167,399.5 292.833,399.5 319.5,399.5C 319.5,372.833 319.5,346.167 319.5,319.5C 292.833,319.5 266.167,319.5 239.5,319.5C 212.833,319.5 186.167,319.5 159.5,319.5C 132.833,319.5 106.167,319.5 79.5,319.5C 79.5,292.833 79.5,266.167 79.5,239.5C 106.167,239.5 132.833,239.5 159.5,239.5C 186.167,239.5 212.833,239.5 239.5,239.5C 266.167,239.5 292.833,239.5 319.5,239.5C 319.5,212.833 319.5,186.167 319.5,159.5C 346.167,159.5 372.833,159.5 399.5,159.5C 426.167,159.5 452.833,159.5 479.5,159.5C 506.167,159.5 532.833,159.5 559.5,159.5C 586.167,159.5 612.833,159.5 639.5,159.5C 639.5,132.833 639.5,106.167 639.5,79.5C 612.833,79.5 586.167,79.5 559.5,79.5C 532.833,79.5 506.167,79.5 479.5,79.5C 452.833,79.5 426.167,79.5 399.5,79.5C 372.833,79.5 346.167,79.5 319.5,79.5C 292.833,79.5 266.167,79.5 239.5,79.5C 239.5,106.167 239.5,132.833 239.5,159.5C 212.833,159.5 186.167,159.5 159.5,159.5C 159.5,132.833 159.5,106.167 159.5,79.5C 132.833,79.5 106.167,79.5 79.5,79.5C 79.5,52.8333 79.5,26.1667 79.5,-0.5 Z"/></g>
<g><path style="opacity:1" fill="#0000c0" d="M -0.5,79.5 C 26.1667,79.5 52.8333,79.5 79.5,79.5C 79.5,106.167 79.5,132.833 79.5,159.5C 52.8333,159.5 26.1667,159.5 -0.5,159.5C -0.5,132.833 -0.5,106.167 -0.5,79.5 Z"/></g>
<g><path style="opacity:1" fill="#00c0bf" d="M 79.5,79.5 C 106.167,79.5 132.833,79.5 159.5,79.5C 159.5,106.167 159.5,132.833 159.5,159.5C 132.833,159.5 106.167,159.5 79.5,159.5C 79.5,132.833 79.5,106.167 79.5,79.5 Z"/></g>
<g><path style="opacity:1" fill="#0000ff" d="M 319.5,79.5 C 319.5,106.167 319.5,132.833 319.5,159.5C 319.5,186.167 319.5,212.833 319.5,239.5C 292.833,239.5 266.167,239.5 239.5,239.5C 239.5,212.833 239.5,186.167 239.5,159.5C 239.5,132.833 239.5,106.167 239.5,79.5C 266.167,79.5 292.833,79.5 319.5,79.5 Z"/></g>
<g><path style="opacity:1" fill="#00c000" d="M 319.5,79.5 C 346.167,79.5 372.833,79.5 399.5,79.5C 399.5,106.167 399.5,132.833 399.5,159.5C 372.833,159.5 346.167,159.5 319.5,159.5C 319.5,132.833 319.5,106.167 319.5,79.5 Z"/></g>
<g><path style="opacity:1" fill="#0000c0" d="M 399.5,79.5 C 426.167,79.5 452.833,79.5 479.5,79.5C 479.5,106.167 479.5,132.833 479.5,159.5C 452.833,159.5 426.167,159.5 399.5,159.5C 399.5,132.833 399.5,106.167 399.5,79.5 Z"/></g>
<g><path style="opacity:1" fill="#feff00" d="M 479.5,79.5 C 506.167,79.5 532.833,79.5 559.5,79.5C 559.5,106.167 559.5,132.833 559.5,159.5C 532.833,159.5 506.167,159.5 479.5,159.5C 479.5,132.833 479.5,106.167 479.5,79.5 Z"/></g>
<g><path style="opacity:1" fill="#0000c0" d="M 559.5,79.5 C 586.167,79.5 612.833,79.5 639.5,79.5C 639.5,106.167 639.5,132.833 639.5,159.5C 612.833,159.5 586.167,159.5 559.5,159.5C 559.5,132.833 559.5,106.167 559.5,79.5 Z"/></g>
<g><path style="opacity:1" fill="#0000ff" d="M 719.5,79.5 C 746.167,79.5 772.833,79.5 799.5,79.5C 799.5,106.167 799.5,132.833 799.5,159.5C 772.833,159.5 746.167,159.5 719.5,159.5C 719.5,132.833 719.5,106.167 719.5,79.5 Z"/></g>
<g><path style="opacity:1" fill="#fec0fe" d="M -0.5,159.5 C 26.1667,159.5 52.8333,159.5 79.5,159.5C 106.167,159.5 132.833,159.5 159.5,159.5C 159.5,186.167 159.5,212.833 159.5,239.5C 132.833,239.5 106.167,239.5 79.5,239.5C 52.8333,239.5 26.1667,239.5 -0.5,239.5C -0.5,212.833 -0.5,186.167 -0.5,159.5 Z"/></g>
<g><path style="opacity:1" fill="#00fffe" d="M 159.5,159.5 C 186.167,159.5 212.833,159.5 239.5,159.5C 239.5,186.167 239.5,212.833 239.5,239.5C 212.833,239.5 186.167,239.5 159.5,239.5C 159.5,212.833 159.5,186.167 159.5,159.5 Z"/></g>
<g><path style="opacity:1" fill="#bffffe" d="M -0.5,239.5 C 26.1667,239.5 52.8333,239.5 79.5,239.5C 79.5,266.167 79.5,292.833 79.5,319.5C 52.8333,319.5 26.1667,319.5 -0.5,319.5C -0.5,292.833 -0.5,266.167 -0.5,239.5 Z"/></g>
<g><path style="opacity:1" fill="#0000ff" d="M -0.5,319.5 C 26.1667,319.5 52.8333,319.5 79.5,319.5C 79.5,346.167 79.5,372.833 79.5,399.5C 52.8333,399.5 26.1667,399.5 -0.5,399.5C -0.5,372.833 -0.5,346.167 -0.5,319.5 Z"/></g>
<g><path style="opacity:1" fill="#fec0bf" d="M 79.5,319.5 C 106.167,319.5 132.833,319.5 159.5,319.5C 159.5,346.167 159.5,372.833 159.5,399.5C 132.833,399.5 106.167,399.5 79.5,399.5C 79.5,372.833 79.5,346.167 79.5,319.5 Z"/></g>
<g><path style="opacity:1" fill="#bf00c0" d="M 159.5,319.5 C 186.167,319.5 212.833,319.5 239.5,319.5C 239.5,346.167 239.5,372.833 239.5,399.5C 212.833,399.5 186.167,399.5 159.5,399.5C 159.5,372.833 159.5,346.167 159.5,319.5 Z"/></g>
<g><path style="opacity:1" fill="#00c000" d="M 239.5,319.5 C 266.167,319.5 292.833,319.5 319.5,319.5C 319.5,346.167 319.5,372.833 319.5,399.5C 292.833,399.5 266.167,399.5 239.5,399.5C 239.5,372.833 239.5,346.167 239.5,319.5 Z"/></g>
<g><path style="opacity:1" fill="#0000ff" d="M 479.5,319.5 C 479.5,346.167 479.5,372.833 479.5,399.5C 452.833,399.5 426.167,399.5 399.5,399.5C 399.5,372.833 399.5,346.167 399.5,319.5C 426.167,319.5 452.833,319.5 479.5,319.5 Z"/></g>
<g><path style="opacity:1" fill="#fec0fe" d="M 479.5,319.5 C 532.833,319.5 586.167,319.5 639.5,319.5C 639.5,346.167 639.5,372.833 639.5,399.5C 586.167,399.5 532.833,399.5 479.5,399.5C 479.5,372.833 479.5,346.167 479.5,319.5 Z"/></g>
<g><path style="opacity:1" fill="#00fffe" d="M 639.5,319.5 C 666.167,319.5 692.833,319.5 719.5,319.5C 719.5,346.167 719.5,372.833 719.5,399.5C 692.833,399.5 666.167,399.5 639.5,399.5C 639.5,372.833 639.5,346.167 639.5,319.5 Z"/></g>
<g><path style="opacity:1" fill="#0000ff" d="M 719.5,319.5 C 746.167,319.5 772.833,319.5 799.5,319.5C 799.5,346.167 799.5,372.833 799.5,399.5C 772.833,399.5 746.167,399.5 719.5,399.5C 719.5,372.833 719.5,346.167 719.5,319.5 Z"/></g>
<g><path style="opacity:1" fill="#feff00" d="M 799.5,319.5 C 826.167,319.5 852.833,319.5 879.5,319.5C 879.5,346.167 879.5,372.833 879.5,399.5C 852.833,399.5 826.167,399.5 799.5,399.5C 799.5,372.833 799.5,346.167 799.5,319.5 Z"/></g>
<g><path style="opacity:1" fill="#bf00c0" d="M 879.5,319.5 C 906.167,319.5 932.833,319.5 959.5,319.5C 959.5,346.167 959.5,372.833 959.5,399.5C 932.833,399.5 906.167,399.5 879.5,399.5C 879.5,372.833 879.5,346.167 879.5,319.5 Z"/></g>
<g><path style="opacity:1" fill="#fec0fe" d="M 959.5,319.5 C 986.167,319.5 1012.83,319.5 1039.5,319.5C 1039.5,346.167 1039.5,372.833 1039.5,399.5C 1012.83,399.5 986.167,399.5 959.5,399.5C 959.5,372.833 959.5,346.167 959.5,319.5 Z"/></g>
<g><path style="opacity:1" fill="#feff00" d="M 1039.5,319.5 C 1066.17,319.5 1092.83,319.5 1119.5,319.5C 1119.5,346.167 1119.5,372.833 1119.5,399.5C 1092.83,399.5 1066.17,399.5 1039.5,399.5C 1039.5,372.833 1039.5,346.167 1039.5,319.5 Z"/></g>
<g><path style="opacity:1" fill="#fefffe" d="M 1119.5,319.5 C 1146.17,319.5 1172.83,319.5 1199.5,319.5C 1199.5,346.167 1199.5,372.833 1199.5,399.5C 1172.83,399.5 1146.17,399.5 1119.5,399.5C 1119.5,372.833 1119.5,346.167 1119.5,319.5 Z"/></g>
<g><path style="opacity:1" fill="#bfffbf" d="M 1199.5,319.5 C 1226.17,319.5 1252.83,319.5 1279.5,319.5C 1279.5,346.167 1279.5,372.833 1279.5,399.5C 1252.83,399.5 1226.17,399.5 1199.5,399.5C 1199.5,372.833 1199.5,346.167 1199.5,319.5 Z"/></g>
<g><path style="opacity:1" fill="#fefffe" d="M 1279.5,319.5 C 1306.17,319.5 1332.83,319.5 1359.5,319.5C 1359.5,346.167 1359.5,372.833 1359.5,399.5C 1332.83,399.5 1306.17,399.5 1279.5,399.5C 1279.5,372.833 1279.5,346.167 1279.5,319.5 Z"/></g>
<g><path style="opacity:1" fill="#fe00ff" d="M -0.5,399.5 C 26.1667,399.5 52.8333,399.5 79.5,399.5C 79.5,426.167 79.5,452.833 79.5,479.5C 52.8333,479.5 26.1667,479.5 -0.5,479.5C -0.5,452.833 -0.5,426.167 -0.5,399.5 Z"/></g>
<g><path style="opacity:1" fill="#0000c0" d="M -0.5,479.5 C 26.1667,479.5 52.8333,479.5 79.5,479.5C 79.5,506.167 79.5,532.833 79.5,559.5C 52.8333,559.5 26.1667,559.5 -0.5,559.5C -0.5,532.833 -0.5,506.167 -0.5,479.5 Z"/></g>
<g><path style="opacity:1" fill="#0000ff" d="M 79.5,479.5 C 106.167,479.5 132.833,479.5 159.5,479.5C 159.5,506.167 159.5,532.833 159.5,559.5C 132.833,559.5 106.167,559.5 79.5,559.5C 79.5,532.833 79.5,506.167 79.5,479.5 Z"/></g>
<g><path style="opacity:1" fill="#fe0000" d="M 159.5,479.5 C 186.167,479.5 212.833,479.5 239.5,479.5C 239.5,506.167 239.5,532.833 239.5,559.5C 212.833,559.5 186.167,559.5 159.5,559.5C 159.5,532.833 159.5,506.167 159.5,479.5 Z"/></g>
<g><path style="opacity:1" fill="#00ff00" d="M 239.5,479.5 C 266.167,479.5 292.833,479.5 319.5,479.5C 319.5,506.167 319.5,532.833 319.5,559.5C 292.833,559.5 266.167,559.5 239.5,559.5C 239.5,532.833 239.5,506.167 239.5,479.5 Z"/></g>
<g><path style="opacity:1" fill="#0000ff" d="M 479.5,479.5 C 479.5,506.167 479.5,532.833 479.5,559.5C 452.833,559.5 426.167,559.5 399.5,559.5C 399.5,532.833 399.5,506.167 399.5,479.5C 426.167,479.5 452.833,479.5 479.5,479.5 Z"/></g>
<g><path style="opacity:1" fill="#fec0fe" d="M 479.5,479.5 C 532.833,479.5 586.167,479.5 639.5,479.5C 639.5,506.167 639.5,532.833 639.5,559.5C 612.833,559.5 586.167,559.5 559.5,559.5C 532.833,559.5 506.167,559.5 479.5,559.5C 479.5,532.833 479.5,506.167 479.5,479.5 Z"/></g>
<g><path style="opacity:1" fill="#00fffe" d="M 639.5,479.5 C 666.167,479.5 692.833,479.5 719.5,479.5C 719.5,506.167 719.5,532.833 719.5,559.5C 692.833,559.5 666.167,559.5 639.5,559.5C 639.5,532.833 639.5,506.167 639.5,479.5 Z"/></g>
<g><path style="opacity:1" fill="#0000ff" d="M 719.5,479.5 C 746.167,479.5 772.833,479.5 799.5,479.5C 799.5,506.167 799.5,532.833 799.5,559.5C 772.833,559.5 746.167,559.5 719.5,559.5C 719.5,532.833 719.5,506.167 719.5,479.5 Z"/></g>
<g><path style="opacity:1" fill="#fec0bf" d="M 799.5,479.5 C 826.167,479.5 852.833,479.5 879.5,479.5C 879.5,506.167 879.5,532.833 879.5,559.5C 852.833,559.5 826.167,559.5 799.5,559.5C 799.5,532.833 799.5,506.167 799.5,479.5 Z"/></g>
<g><path style="opacity:1" fill="#bfc0ff" d="M 879.5,479.5 C 906.167,479.5 932.833,479.5 959.5,479.5C 959.5,506.167 959.5,532.833 959.5,559.5C 932.833,559.5 906.167,559.5 879.5,559.5C 879.5,532.833 879.5,506.167 879.5,479.5 Z"/></g>
<g><path style="opacity:1" fill="#bfc0ff" d="M -0.5,559.5 C 26.1667,559.5 52.8333,559.5 79.5,559.5C 79.5,586.167 79.5,612.833 79.5,639.5C 52.8333,639.5 26.1667,639.5 -0.5,639.5C -0.5,612.833 -0.5,586.167 -0.5,559.5 Z"/></g>
<g><path style="opacity:1" fill="#feffbf" d="M 79.5,559.5 C 106.167,559.5 132.833,559.5 159.5,559.5C 159.5,586.167 159.5,612.833 159.5,639.5C 132.833,639.5 106.167,639.5 79.5,639.5C 79.5,612.833 79.5,586.167 79.5,559.5 Z"/></g>
<g><path style="opacity:1" fill="#bffffe" d="M 159.5,559.5 C 186.167,559.5 212.833,559.5 239.5,559.5C 239.5,586.167 239.5,612.833 239.5,639.5C 212.833,639.5 186.167,639.5 159.5,639.5C 159.5,612.833 159.5,586.167 159.5,559.5 Z"/></g>
<g><path style="opacity:1" fill="#feff00" d="M 239.5,559.5 C 266.167,559.5 292.833,559.5 319.5,559.5C 319.5,586.167 319.5,612.833 319.5,639.5C 292.833,639.5 266.167,639.5 239.5,639.5C 239.5,612.833 239.5,586.167 239.5,559.5 Z"/></g>
<g><path style="opacity:1" fill="#00c0bf" d="M 319.5,559.5 C 346.167,559.5 372.833,559.5 399.5,559.5C 399.5,586.167 399.5,612.833 399.5,639.5C 372.833,639.5 346.167,639.5 319.5,639.5C 319.5,612.833 319.5,586.167 319.5,559.5 Z"/></g>
<g><path style="opacity:1" fill="#fefffe" d="M 399.5,559.5 C 426.167,559.5 452.833,559.5 479.5,559.5C 479.5,586.167 479.5,612.833 479.5,639.5C 452.833,639.5 426.167,639.5 399.5,639.5C 399.5,612.833 399.5,586.167 399.5,559.5 Z"/></g>
<g><path style="opacity:1" fill="#fe00ff" d="M 479.5,559.5 C 506.167,559.5 532.833,559.5 559.5,559.5C 559.5,586.167 559.5,612.833 559.5,639.5C 532.833,639.5 506.167,639.5 479.5,639.5C 479.5,612.833 479.5,586.167 479.5,559.5 Z"/></g>
<g><path style="opacity:1" fill="#0000ff" d="M -0.5,639.5 C 26.1667,639.5 52.8333,639.5 79.5,639.5C 79.5,666.167 79.5,692.833 79.5,719.5C 52.8333,719.5 26.1667,719.5 -0.5,719.5C -0.5,692.833 -0.5,666.167 -0.5,639.5 Z"/></g>
<g><path style="opacity:1" fill="#bf0000" d="M -0.5,719.5 C 26.1667,719.5 52.8333,719.5 79.5,719.5C 79.5,746.167 79.5,772.833 79.5,799.5C 52.8333,799.5 26.1667,799.5 -0.5,799.5C -0.5,772.833 -0.5,746.167 -0.5,719.5 Z"/></g>
<g><path style="opacity:1" fill="#00ff00" d="M -0.5,799.5 C 26.1667,799.5 52.8333,799.5 79.5,799.5C 79.5,826.167 79.5,852.833 79.5,879.5C 52.8333,879.5 26.1667,879.5 -0.5,879.5C -0.5,852.833 -0.5,826.167 -0.5,799.5 Z"/></g>
<g><path style="opacity:1" fill="#0000ff" d="M 239.5,799.5 C 239.5,826.167 239.5,852.833 239.5,879.5C 212.833,879.5 186.167,879.5 159.5,879.5C 159.5,852.833 159.5,826.167 159.5,799.5C 186.167,799.5 212.833,799.5 239.5,799.5 Z"/></g>
<g><path style="opacity:1" fill="#fec0fe" d="M 239.5,799.5 C 292.833,799.5 346.167,799.5 399.5,799.5C 399.5,826.167 399.5,852.833 399.5,879.5C 346.167,879.5 292.833,879.5 239.5,879.5C 239.5,852.833 239.5,826.167 239.5,799.5 Z"/></g>
<g><path style="opacity:1" fill="#00fffe" d="M 399.5,799.5 C 426.167,799.5 452.833,799.5 479.5,799.5C 479.5,826.167 479.5,852.833 479.5,879.5C 452.833,879.5 426.167,879.5 399.5,879.5C 399.5,852.833 399.5,826.167 399.5,799.5 Z"/></g>
<g><path style="opacity:1" fill="#0000ff" d="M 479.5,799.5 C 506.167,799.5 532.833,799.5 559.5,799.5C 559.5,826.167 559.5,852.833 559.5,879.5C 532.833,879.5 506.167,879.5 479.5,879.5C 479.5,852.833 479.5,826.167 479.5,799.5 Z"/></g>
<g><path style="opacity:1" fill="#fec0bf" d="M 559.5,799.5 C 586.167,799.5 612.833,799.5 639.5,799.5C 639.5,826.167 639.5,852.833 639.5,879.5C 612.833,879.5 586.167,879.5 559.5,879.5C 559.5,852.833 559.5,826.167 559.5,799.5 Z"/></g>
<g><path style="opacity:1" fill="#bfc0ff" d="M 639.5,799.5 C 666.167,799.5 692.833,799.5 719.5,799.5C 719.5,826.167 719.5,852.833 719.5,879.5C 692.833,879.5 666.167,879.5 639.5,879.5C 639.5,852.833 639.5,826.167 639.5,799.5 Z"/></g>
<g><path style="opacity:1" fill="#0000ff" d="M -0.5,879.5 C 26.1667,879.5 52.8333,879.5 79.5,879.5C 79.5,906.167 79.5,932.833 79.5,959.5C 52.8333,959.5 26.1667,959.5 -0.5,959.5C -0.5,932.833 -0.5,906.167 -0.5,879.5 Z"/></g>
<g><path style="opacity:1" fill="#feff00" d="M -0.5,959.5 C 26.1667,959.5 52.8333,959.5 79.5,959.5C 79.5,986.167 79.5,1012.83 79.5,1039.5C 52.8333,1039.5 26.1667,1039.5 -0.5,1039.5C -0.5,1012.83 -0.5,986.167 -0.5,959.5 Z"/></g>
<g><path style="opacity:1" fill="#fec0bf" d="M 79.5,959.5 C 106.167,959.5 132.833,959.5 159.5,959.5C 159.5,986.167 159.5,1012.83 159.5,1039.5C 132.833,1039.5 106.167,1039.5 79.5,1039.5C 79.5,1012.83 79.5,986.167 79.5,959.5 Z"/></g>
<g><path style="opacity:1" fill="#bf00c0" d="M 159.5,959.5 C 186.167,959.5 212.833,959.5 239.5,959.5C 239.5,986.167 239.5,1012.83 239.5,1039.5C 212.833,1039.5 186.167,1039.5 159.5,1039.5C 159.5,1012.83 159.5,986.167 159.5,959.5 Z"/></g>
<g><path style="opacity:1" fill="#bfffbf" d="M 239.5,959.5 C 266.167,959.5 292.833,959.5 319.5,959.5C 319.5,986.167 319.5,1012.83 319.5,1039.5C 292.833,1039.5 266.167,1039.5 239.5,1039.5C 239.5,1012.83 239.5,986.167 239.5,959.5 Z"/></g>
<g><path style="opacity:1" fill="#bf00c0" d="M 319.5,959.5 C 346.167,959.5 372.833,959.5 399.5,959.5C 399.5,986.167 399.5,1012.83 399.5,1039.5C 372.833,1039.5 346.167,1039.5 319.5,1039.5C 319.5,1012.83 319.5,986.167 319.5,959.5 Z"/></g>
<g><path style="opacity:1" fill="#bffffe" d="M 399.5,959.5 C 426.167,959.5 452.833,959.5 479.5,959.5C 479.5,986.167 479.5,1012.83 479.5,1039.5C 452.833,1039.5 426.167,1039.5 399.5,1039.5C 399.5,1012.83 399.5,986.167 399.5,959.5 Z"/></g>
<g><path style="opacity:1" fill="#fec0bf" d="M 479.5,959.5 C 506.167,959.5 532.833,959.5 559.5,959.5C 559.5,986.167 559.5,1012.83 559.5,1039.5C 532.833,1039.5 506.167,1039.5 479.5,1039.5C 479.5,1012.83 479.5,986.167 479.5,959.5 Z"/></g>
<g><path style="opacity:1" fill="#bf00c0" d="M 559.5,959.5 C 586.167,959.5 612.833,959.5 639.5,959.5C 639.5,986.167 639.5,1012.83 639.5,1039.5C 612.833,1039.5 586.167,1039.5 559.5,1039.5C 559.5,1012.83 559.5,986.167 559.5,959.5 Z"/></g>
<g><path style="opacity:1" fill="#bf0000" d="M 639.5,959.5 C 666.167,959.5 692.833,959.5 719.5,959.5C 719.5,986.167 719.5,1012.83 719.5,1039.5C 692.833,1039.5 666.167,1039.5 639.5,1039.5C 639.5,1012.83 639.5,986.167 639.5,959.5 Z"/></g>
<g><path style="opacity:1" fill="#0000ff" d="M 879.5,959.5 C 879.5,986.167 879.5,1012.83 879.5,1039.5C 852.833,1039.5 826.167,1039.5 799.5,1039.5C 799.5,1012.83 799.5,986.167 799.5,959.5C 826.167,959.5 852.833,959.5 879.5,959.5 Z"/></g>
<g><path style="opacity:1" fill="#feff00" d="M 879.5,959.5 C 906.167,959.5 932.833,959.5 959.5,959.5C 959.5,986.167 959.5,1012.83 959.5,1039.5C 932.833,1039.5 906.167,1039.5 879.5,1039.5C 879.5,1012.83 879.5,986.167 879.5,959.5 Z"/></g>
<g><path style="opacity:1" fill="#00ff00" d="M 959.5,959.5 C 986.167,959.5 1012.83,959.5 1039.5,959.5C 1039.5,986.167 1039.5,1012.83 1039.5,1039.5C 1012.83,1039.5 986.167,1039.5 959.5,1039.5C 959.5,1012.83 959.5,986.167 959.5,959.5 Z"/></g>
<g><path style="opacity:1" fill="#00c0bf" d="M -0.5,1039.5 C 26.1667,1039.5 52.8333,1039.5 79.5,1039.5C 79.5,1066.17 79.5,1092.83 79.5,1119.5C 52.8333,1119.5 26.1667,1119.5 -0.5,1119.5C -0.5,1092.83 -0.5,1066.17 -0.5,1039.5 Z"/></g>
<g><path style="opacity:1" fill="#fefffe" d="M 79.5,1039.5 C 106.167,1039.5 132.833,1039.5 159.5,1039.5C 159.5,1066.17 159.5,1092.83 159.5,1119.5C 132.833,1119.5 106.167,1119.5 79.5,1119.5C 79.5,1092.83 79.5,1066.17 79.5,1039.5 Z"/></g>
<g><path style="opacity:1" fill="#bf0000" d="M 159.5,1039.5 C 186.167,1039.5 212.833,1039.5 239.5,1039.5C 239.5,1066.17 239.5,1092.83 239.5,1119.5C 212.833,1119.5 186.167,1119.5 159.5,1119.5C 159.5,1092.83 159.5,1066.17 159.5,1039.5 Z"/></g>
<g><path style="opacity:1" fill="#0000ff" d="M 239.5,1039.5 C 266.167,1039.5 292.833,1039.5 319.5,1039.5C 319.5,1066.17 319.5,1092.83 319.5,1119.5C 292.833,1119.5 266.167,1119.5 239.5,1119.5C 239.5,1092.83 239.5,1066.17 239.5,1039.5 Z"/></g>
<g><path style="opacity:1" fill="#feff00" d="M 319.5,1039.5 C 346.167,1039.5 372.833,1039.5 399.5,1039.5C 399.5,1066.17 399.5,1092.83 399.5,1119.5C 372.833,1119.5 346.167,1119.5 319.5,1119.5C 319.5,1092.83 319.5,1066.17 319.5,1039.5 Z"/></g>
<g><path style="opacity:1" fill="#fefffe" d="M 399.5,1039.5 C 426.167,1039.5 452.833,1039.5 479.5,1039.5C 479.5,1066.17 479.5,1092.83 479.5,1119.5C 452.833,1119.5 426.167,1119.5 399.5,1119.5C 399.5,1092.83 399.5,1066.17 399.5,1039.5 Z"/></g>
<g><path style="opacity:1" fill="#fe0000" d="M 479.5,1039.5 C 506.167,1039.5 532.833,1039.5 559.5,1039.5C 559.5,1066.17 559.5,1092.83 559.5,1119.5C 532.833,1119.5 506.167,1119.5 479.5,1119.5C 479.5,1092.83 479.5,1066.17 479.5,1039.5 Z"/></g>
<g><path style="opacity:1" fill="#bfffbf" d="M 639.5,1039.5 C 666.167,1039.5 692.833,1039.5 719.5,1039.5C 719.5,1066.17 719.5,1092.83 719.5,1119.5C 692.833,1119.5 666.167,1119.5 639.5,1119.5C 639.5,1092.83 639.5,1066.17 639.5,1039.5 Z"/></g>
<g><path style="opacity:1" fill="#bf00c0" d="M 719.5,1039.5 C 746.167,1039.5 772.833,1039.5 799.5,1039.5C 799.5,1066.17 799.5,1092.83 799.5,1119.5C 772.833,1119.5 746.167,1119.5 719.5,1119.5C 719.5,1092.83 719.5,1066.17 719.5,1039.5 Z"/></g>
<g><path style="opacity:1" fill="#0000c0" d="M 799.5,1039.5 C 826.167,1039.5 852.833,1039.5 879.5,1039.5C 879.5,1066.17 879.5,1092.83 879.5,1119.5C 852.833,1119.5 826.167,1119.5 799.5,1119.5C 799.5,1092.83 799.5,1066.17 799.5,1039.5 Z"/></g>
<g><path style="opacity:1" fill="#bf0000" d="M 879.5,1039.5 C 906.167,1039.5 932.833,1039.5 959.5,1039.5C 959.5,1066.17 959.5,1092.83 959.5,1119.5C 932.833,1119.5 906.167,1119.5 879.5,1119.5C 879.5,1092.83 879.5,1066.17 879.5,1039.5 Z"/></g>
<g><path style="opacity:1" fill="#0000ff" d="M 959.5,1039.5 C 986.167,1039.5 1012.83,1039.5 1039.5,1039.5C 1039.5,1066.17 1039.5,1092.83 1039.5,1119.5C 1012.83,1119.5 986.167,1119.5 959.5,1119.5C 959.5,1092.83 959.5,1066.17 959.5,1039.5 Z"/></g>
<g><path style="opacity:1" fill="#feff00" d="M 1039.5,1039.5 C 1066.17,1039.5 1092.83,1039.5 1119.5,1039.5C 1119.5,1066.17 1119.5,1092.83 1119.5,1119.5C 1092.83,1119.5 1066.17,1119.5 1039.5,1119.5C 1039.5,1092.83 1039.5,1066.17 1039.5,1039.5 Z"/></g>
<g><path style="opacity:1" fill="#fefffe" d="M 1119.5,1039.5 C 1146.17,1039.5 1172.83,1039.5 1199.5,1039.5C 1199.5,1066.17 1199.5,1092.83 1199.5,1119.5C 1172.83,1119.5 1146.17,1119.5 1119.5,1119.5C 1119.5,1092.83 1119.5,1066.17 1119.5,1039.5 Z"/></g>
<g><path style="opacity:1" fill="#fe0000" d="M 1199.5,1039.5 C 1226.17,1039.5 1252.83,1039.5 1279.5,1039.5C 1279.5,1066.17 1279.5,1092.83 1279.5,1119.5C 1252.83,1119.5 1226.17,1119.5 1199.5,1119.5C 1199.5,1092.83 1199.5,1066.17 1199.5,1039.5 Z"/></g>
<g><path style="opacity:1" fill="#0000c0" d="M 1439.5,1039.5 C 1439.5,1066.17 1439.5,1092.83 1439.5,1119.5C 1412.83,1119.5 1386.17,1119.5 1359.5,1119.5C 1359.5,1092.83 1359.5,1066.17 1359.5,1039.5C 1386.17,1039.5 1412.83,1039.5 1439.5,1039.5 Z"/></g>
<g><path style="opacity:1" fill="#feff00" d="M 1439.5,1039.5 C 1466.17,1039.5 1492.83,1039.5 1519.5,1039.5C 1519.5,1066.17 1519.5,1092.83 1519.5,1119.5C 1492.83,1119.5 1466.17,1119.5 1439.5,1119.5C 1439.5,1092.83 1439.5,1066.17 1439.5,1039.5 Z"/></g>
<g><path style="opacity:1" fill="#0000ff" d="M 1519.5,1039.5 C 1546.17,1039.5 1572.83,1039.5 1599.5,1039.5C 1599.5,1066.17 1599.5,1092.83 1599.5,1119.5C 1572.83,1119.5 1546.17,1119.5 1519.5,1119.5C 1519.5,1092.83 1519.5,1066.17 1519.5,1039.5 Z"/></g>
<g><path style="opacity:1" fill="#fe00ff" d="M 1599.5,1039.5 C 1626.17,1039.5 1652.83,1039.5 1679.5,1039.5C 1679.5,1066.17 1679.5,1092.83 1679.5,1119.5C 1652.83,1119.5 1626.17,1119.5 1599.5,1119.5C 1599.5,1092.83 1599.5,1066.17 1599.5,1039.5 Z"/></g>
<g><path style="opacity:1" fill="#bf00c0" d="M 1679.5,1039.5 C 1706.17,1039.5 1732.83,1039.5 1759.5,1039.5C 1759.5,1066.17 1759.5,1092.83 1759.5,1119.5C 1732.83,1119.5 1706.17,1119.5 1679.5,1119.5C 1679.5,1092.83 1679.5,1066.17 1679.5,1039.5 Z"/></g>
<g><path style="opacity:1" fill="#fe0000" d="M -0.5,1199.5 C 26.1667,1199.5 52.8333,1199.5 79.5,1199.5C 79.5,1226.17 79.5,1252.83 79.5,1279.5C 52.8333,1279.5 26.1667,1279.5 -0.5,1279.5C -0.5,1252.83 -0.5,1226.17 -0.5,1199.5 Z"/></g>
<g><path style="opacity:1" fill="#0000c0" d="M 79.5,1199.5 C 132.833,1199.5 186.167,1199.5 239.5,1199.5C 239.5,1226.17 239.5,1252.83 239.5,1279.5C 186.167,1279.5 132.833,1279.5 79.5,1279.5C 79.5,1252.83 79.5,1226.17 79.5,1199.5 Z"/></g>
<g><path style="opacity:1" fill="#0000ff" d="M 239.5,1199.5 C 266.167,1199.5 292.833,1199.5 319.5,1199.5C 319.5,1226.17 319.5,1252.83 319.5,1279.5C 292.833,1279.5 266.167,1279.5 239.5,1279.5C 239.5,1252.83 239.5,1226.17 239.5,1199.5 Z"/></g>
<g><path style="opacity:1" fill="#feff00" d="M 319.5,1199.5 C 346.167,1199.5 372.833,1199.5 399.5,1199.5C 399.5,1226.17 399.5,1252.83 399.5,1279.5C 372.833,1279.5 346.167,1279.5 319.5,1279.5C 319.5,1252.83 319.5,1226.17 319.5,1199.5 Z"/></g>
<g><path style="opacity:1" fill="#fefffe" d="M 399.5,1199.5 C 426.167,1199.5 452.833,1199.5 479.5,1199.5C 479.5,1226.17 479.5,1252.83 479.5,1279.5C 452.833,1279.5 426.167,1279.5 399.5,1279.5C 399.5,1252.83 399.5,1226.17 399.5,1199.5 Z"/></g>
<g><path style="opacity:1" fill="#00ff00" d="M 479.5,1199.5 C 506.167,1199.5 532.833,1199.5 559.5,1199.5C 559.5,1226.17 559.5,1252.83 559.5,1279.5C 532.833,1279.5 506.167,1279.5 479.5,1279.5C 479.5,1252.83 479.5,1226.17 479.5,1199.5 Z"/></g>
<g><path style="opacity:1" fill="#fe00ff" d="M -0.5,1279.5 C 26.1667,1279.5 52.8333,1279.5 79.5,1279.5C 79.5,1306.17 79.5,1332.83 79.5,1359.5C 52.8333,1359.5 26.1667,1359.5 -0.5,1359.5C -0.5,1332.83 -0.5,1306.17 -0.5,1279.5 Z"/></g>
<g><path style="opacity:1" fill="#0000ff" d="M -0.5,1359.5 C 26.1667,1359.5 52.8333,1359.5 79.5,1359.5C 79.5,1386.17 79.5,1412.83 79.5,1439.5C 52.8333,1439.5 26.1667,1439.5 -0.5,1439.5C -0.5,1412.83 -0.5,1386.17 -0.5,1359.5 Z"/></g>
<g><path style="opacity:1" fill="#feff00" d="M 79.5,1359.5 C 106.167,1359.5 132.833,1359.5 159.5,1359.5C 159.5,1386.17 159.5,1412.83 159.5,1439.5C 132.833,1439.5 106.167,1439.5 79.5,1439.5C 79.5,1412.83 79.5,1386.17 79.5,1359.5 Z"/></g>
<g><path style="opacity:1" fill="#bf00c0" d="M 159.5,1359.5 C 186.167,1359.5 212.833,1359.5 239.5,1359.5C 239.5,1386.17 239.5,1412.83 239.5,1439.5C 212.833,1439.5 186.167,1439.5 159.5,1439.5C 159.5,1412.83 159.5,1386.17 159.5,1359.5 Z"/></g>
<g><path style="opacity:1" fill="#00c0bf" d="M 239.5,1359.5 C 266.167,1359.5 292.833,1359.5 319.5,1359.5C 319.5,1386.17 319.5,1412.83 319.5,1439.5C 292.833,1439.5 266.167,1439.5 239.5,1439.5C 239.5,1412.83 239.5,1386.17 239.5,1359.5 Z"/></g>
<g><path style="opacity:1" fill="#bfffbf" d="M 319.5,1359.5 C 346.167,1359.5 372.833,1359.5 399.5,1359.5C 399.5,1386.17 399.5,1412.83 399.5,1439.5C 372.833,1439.5 346.167,1439.5 319.5,1439.5C 319.5,1412.83 319.5,1386.17 319.5,1359.5 Z"/></g>
<g><path style="opacity:1" fill="#0000c0" d="M 399.5,1359.5 C 426.167,1359.5 452.833,1359.5 479.5,1359.5C 479.5,1386.17 479.5,1412.83 479.5,1439.5C 452.833,1439.5 426.167,1439.5 399.5,1439.5C 399.5,1412.83 399.5,1386.17 399.5,1359.5 Z"/></g>
<g><path style="opacity:1" fill="#bfc000" d="M 479.5,1359.5 C 506.167,1359.5 532.833,1359.5 559.5,1359.5C 559.5,1386.17 559.5,1412.83 559.5,1439.5C 532.833,1439.5 506.167,1439.5 479.5,1439.5C 479.5,1412.83 479.5,1386.17 479.5,1359.5 Z"/></g>
<g><path style="opacity:1" fill="#fec0bf" d="M 559.5,1359.5 C 586.167,1359.5 612.833,1359.5 639.5,1359.5C 639.5,1386.17 639.5,1412.83 639.5,1439.5C 612.833,1439.5 586.167,1439.5 559.5,1439.5C 559.5,1412.83 559.5,1386.17 559.5,1359.5 Z"/></g>
<g><path style="opacity:1" fill="#fe0000" d="M 639.5,1359.5 C 666.167,1359.5 692.833,1359.5 719.5,1359.5C 719.5,1386.17 719.5,1412.83 719.5,1439.5C 692.833,1439.5 666.167,1439.5 639.5,1439.5C 639.5,1412.83 639.5,1386.17 639.5,1359.5 Z"/></g>
<g><path style="opacity:1" fill="#bfffbf" d="M 799.5,1359.5 C 826.167,1359.5 852.833,1359.5 879.5,1359.5C 879.5,1386.17 879.5,1412.83 879.5,1439.5C 852.833,1439.5 826.167,1439.5 799.5,1439.5C 799.5,1412.83 799.5,1386.17 799.5,1359.5 Z"/></g>
<g><path style="opacity:1" fill="#fefffe" d="M -0.5,1439.5 C 26.1667,1439.5 52.8333,1439.5 79.5,1439.5C 106.167,1439.5 132.833,1439.5 159.5,1439.5C 159.5,1466.17 159.5,1492.83 159.5,1519.5C 132.833,1519.5 106.167,1519.5 79.5,1519.5C 52.8333,1519.5 26.1667,1519.5 -0.5,1519.5C -0.5,1492.83 -0.5,1466.17 -0.5,1439.5 Z"/></g>
<g><path style="opacity:1" fill="#fec0fe" d="M 159.5,1439.5 C 186.167,1439.5 212.833,1439.5 239.5,1439.5C 239.5,1466.17 239.5,1492.83 239.5,1519.5C 212.833,1519.5 186.167,1519.5 159.5,1519.5C 159.5,1492.83 159.5,1466.17 159.5,1439.5 Z"/></g>
<g><path style="opacity:1" fill="#bf00c0" d="M 239.5,1439.5 C 266.167,1439.5 292.833,1439.5 319.5,1439.5C 319.5,1466.17 319.5,1492.83 319.5,1519.5C 292.833,1519.5 266.167,1519.5 239.5,1519.5C 239.5,1492.83 239.5,1466.17 239.5,1439.5 Z"/></g>
<g><path style="opacity:1" fill="#fec0bf" d="M -0.5,1519.5 C 26.1667,1519.5 52.8333,1519.5 79.5,1519.5C 79.5,1546.17 79.5,1572.83 79.5,1599.5C 52.8333,1599.5 26.1667,1599.5 -0.5,1599.5C -0.5,1572.83 -0.5,1546.17 -0.5,1519.5 Z"/></g>
<g><path style="opacity:1" fill="#000000" d="M -0.5,1599.5 C 26.1667,1599.5 52.8333,1599.5 79.5,1599.5C 79.5,1626.17 79.5,1652.83 79.5,1679.5C 52.8333,1679.5 26.1667,1679.5 -0.5,1679.5C -0.5,1652.83 -0.5,1626.17 -0.5,1599.5 Z"/></g>
<g><path style="opacity:1" fill="#0000c0" d="M 79.5,1599.5 C 106.167,1599.5 132.833,1599.5 159.5,1599.5C 159.5,1626.17 159.5,1652.83 159.5,1679.5C 132.833,1679.5 106.167,1679.5 79.5,1679.5C 79.5,1652.83 79.5,1626.17 79.5,1599.5 Z"/></g>
<g><path style="opacity:1" fill="#fec0bf" d="M 159.5,1599.5 C 186.167,1599.5 212.833,1599.5 239.5,1599.5C 239.5,1626.17 239.5,1652.83 239.5,1679.5C 212.833,1679.5 186.167,1679.5 159.5,1679.5C 159.5,1652.83 159.5,1626.17 159.5,1599.5 Z"/></g>
<g><path style="opacity:1" fill="#fefffe" d="M 239.5,1599.5 C 266.167,1599.5 292.833,1599.5 319.5,1599.5C 319.5,1626.17 319.5,1652.83 319.5,1679.5C 292.833,1679.5 266.167,1679.5 239.5,1679.5C 239.5,1652.83 239.5,1626.17 239.5,1599.5 Z"/></g>
<g><path style="opacity:1" fill="#bffffe" d="M 319.5,1599.5 C 346.167,1599.5 372.833,1599.5 399.5,1599.5C 399.5,1626.17 399.5,1652.83 399.5,1679.5C 372.833,1679.5 346.167,1679.5 319.5,1679.5C 319.5,1652.83 319.5,1626.17 319.5,1599.5 Z"/></g>
<g><path style="opacity:1" fill="#0000c0" d="M 559.5,1599.5 C 559.5,1626.17 559.5,1652.83 559.5,1679.5C 532.833,1679.5 506.167,1679.5 479.5,1679.5C 479.5,1652.83 479.5,1626.17 479.5,1599.5C 506.167,1599.5 532.833,1599.5 559.5,1599.5 Z"/></g>
<g><path style="opacity:1" fill="#fe0000" d="M 559.5,1599.5 C 612.833,1599.5 666.167,1599.5 719.5,1599.5C 719.5,1626.17 719.5,1652.83 719.5,1679.5C 666.167,1679.5 612.833,1679.5 559.5,1679.5C 559.5,1652.83 559.5,1626.17 559.5,1599.5 Z"/></g>
<g><path style="opacity:1" fill="#feff00" d="M 719.5,1599.5 C 746.167,1599.5 772.833,1599.5 799.5,1599.5C 799.5,1626.17 799.5,1652.83 799.5,1679.5C 772.833,1679.5 746.167,1679.5 719.5,1679.5C 719.5,1652.83 719.5,1626.17 719.5,1599.5 Z"/></g>
<g><path style="opacity:1" fill="#00fffe" d="M -0.5,1679.5 C 26.1667,1679.5 52.8333,1679.5 79.5,1679.5C 79.5,1706.17 79.5,1732.83 79.5,1759.5C 52.8333,1759.5 26.1667,1759.5 -0.5,1759.5C -0.5,1732.83 -0.5,1706.17 -0.5,1679.5 Z"/></g>
<g><path style="opacity:1" fill="#0000ff" d="M 79.5,1679.5 C 106.167,1679.5 132.833,1679.5 159.5,1679.5C 159.5,1706.17 159.5,1732.83 159.5,1759.5C 132.833,1759.5 106.167,1759.5 79.5,1759.5C 79.5,1732.83 79.5,1706.17 79.5,1679.5 Z"/></g>
</svg>
